<svg width="25" height="24" viewBox="0 0 25 24" fill="none" xmlns="http://www.w3.org/2000/svg">
<path d="M18.0999 22.5598H6.89985C5.07984 22.5598 3.41985 21.1598 3.11985 19.3598L1.78984 11.3999C1.57984 10.1599 2.17985 8.56987 3.16985 7.77987L10.0999 2.22982C11.4399 1.14982 13.5498 1.15983 14.8998 2.23983L21.8299 7.77987C22.8099 8.56987 23.4099 10.1599 23.2099 11.3999L21.8799 19.3598C21.5799 21.1298 19.8899 22.5598 18.0999 22.5598ZM12.4899 2.93984C11.9599 2.93984 11.4298 3.09981 11.0398 3.40981L4.10985 8.95986C3.53985 9.41986 3.14986 10.4398 3.26986 11.1598L4.59986 19.1198C4.77986 20.1698 5.82984 21.0598 6.89985 21.0598H18.0999C19.1699 21.0598 20.2198 20.1698 20.3998 19.1098L21.7298 11.1499C21.8498 10.4299 21.4499 9.39985 20.8899 8.94985L13.9599 3.40981C13.5599 3.09981 13.0299 2.93984 12.4899 2.93984Z" fill="#8F8ABA"/>
<path d="M12.5 16.25C10.71 16.25 9.25 14.79 9.25 13C9.25 11.21 10.71 9.75 12.5 9.75C14.29 9.75 15.75 11.21 15.75 13C15.75 14.79 14.29 16.25 12.5 16.25ZM12.5 11.25C11.54 11.25 10.75 12.04 10.75 13C10.75 13.96 11.54 14.75 12.5 14.75C13.46 14.75 14.25 13.96 14.25 13C14.25 12.04 13.46 11.25 12.5 11.25Z" fill="#8F8ABA"/>
</svg>
