<svg width="24" height="26" viewBox="0 0 24 26" fill="none" xmlns="http://www.w3.org/2000/svg">
<path d="M18.0001 7.46063C17.9401 7.45021 17.8701 7.45021 17.8101 7.46063C16.4301 7.40853 15.3301 6.23108 15.3301 4.77231C15.3301 3.28227 16.4801 2.08398 17.9101 2.08398C19.3401 2.08398 20.4901 3.29269 20.4901 4.77231C20.4801 6.23108 19.3801 7.40853 18.0001 7.46063Z" stroke="#999999" stroke-width="1.5" stroke-linecap="round" stroke-linejoin="round"/>
<path d="M16.9704 15.0465C18.3404 15.2862 19.8504 15.0361 20.9104 14.2963C22.3204 13.3168 22.3204 11.7121 20.9104 10.7327C19.8404 9.99287 18.3104 9.74279 16.9404 9.99287" stroke="#999999" stroke-width="1.5" stroke-linecap="round" stroke-linejoin="round"/>
<path d="M5.97047 7.46063C6.03047 7.45021 6.10047 7.45021 6.16047 7.46063C7.54047 7.40853 8.64047 6.23108 8.64047 4.77231C8.64047 3.28227 7.49047 2.08398 6.06047 2.08398C4.63047 2.08398 3.48047 3.29269 3.48047 4.77231C3.49047 6.23108 4.59047 7.40853 5.97047 7.46063Z" stroke="#999999" stroke-width="1.5" stroke-linecap="round" stroke-linejoin="round"/>
<path d="M7.00043 15.0465C5.63043 15.2862 4.12043 15.0361 3.06043 14.2963C1.65043 13.3168 1.65043 11.7121 3.06043 10.7327C4.13043 9.99287 5.66043 9.74279 7.03043 9.99287" stroke="#999999" stroke-width="1.5" stroke-linecap="round" stroke-linejoin="round"/>
<path d="M12.0001 15.2443C11.9401 15.2339 11.8701 15.2339 11.8101 15.2443C10.4301 15.1922 9.33008 14.0148 9.33008 12.556C9.33008 11.066 10.4801 9.86768 11.9101 9.86768C13.3401 9.86768 14.4901 11.0764 14.4901 12.556C14.4801 14.0148 13.3801 15.2026 12.0001 15.2443Z" stroke="#999999" stroke-width="1.5" stroke-linecap="round" stroke-linejoin="round"/>
<path d="M9.08973 18.5266C7.67973 19.5061 7.67973 21.1107 9.08973 22.0902C10.6897 23.2051 13.3097 23.2051 14.9097 22.0902C16.3197 21.1107 16.3197 19.5061 14.9097 18.5266C13.3197 17.4221 10.6897 17.4221 9.08973 18.5266Z" stroke="#999999" stroke-width="1.5" stroke-linecap="round" stroke-linejoin="round"/>
</svg>
