<svg width="24" height="26" viewBox="0 0 24 26" fill="none" xmlns="http://www.w3.org/2000/svg">
<path d="M9 22.9237H15C20 22.9237 22 20.8397 22 15.6298V9.37788C22 4.16795 20 2.08398 15 2.08398H9C4 2.08398 2 4.16795 2 9.37788V15.6298C2 20.8397 4 22.9237 9 22.9237Z" stroke="#999999" stroke-width="1.5" stroke-linecap="round" stroke-linejoin="round"/>
<path d="M9.09961 12.5039V10.9618C9.09961 8.97156 10.4496 8.16923 12.0996 9.15912L13.3796 9.93018L14.6596 10.7013C16.3096 11.6911 16.3096 13.3166 14.6596 14.3065L13.3796 15.0776L12.0996 15.8487C10.4496 16.8385 9.09961 16.0258 9.09961 14.046V12.5039Z" stroke="#999999" stroke-width="1.5" stroke-miterlimit="10" stroke-linecap="round" stroke-linejoin="round"/>
</svg>
